<?xml version="1.0" encoding="UTF-8"?>
<svg version="1.1" xmlns="http://www.w3.org/2000/svg" width="1028" height="662">
<path d="M0 0 C339.24 0 678.48 0 1028 0 C1028 218.46 1028 436.92 1028 662 C688.76 662 349.52 662 0 662 C0 443.54 0 225.08 0 0 Z " fill="#FDFDFD" transform="translate(0,0)"/>
<path d="M0 0 C16.00074891 -0.53644129 31.38029462 3.53805424 44.87890625 12.19921875 C45.37390625 13.68421875 45.37390625 13.68421875 45.87890625 15.19921875 C47.67925955 16.27469645 47.67925955 16.27469645 49.87890625 17.19921875 C61.9937111 23.95438539 71.48437114 33.33799833 80.63574219 43.61889648 C84.25479845 47.63956054 88.132648 51.3063926 92.12890625 54.94921875 C96.41486103 58.8562446 100.44098075 62.77120375 104.16796875 67.2265625 C108.52419106 72.24914758 113.25874123 77.1236061 118.47265625 81.25390625 C120.71126414 83.0636899 122.43054561 84.85950265 124.25390625 87.07421875 C127.11110518 90.44006189 130.12766258 93.24549296 133.59375 95.97265625 C134.01785156 96.37742187 134.44195312 96.7821875 134.87890625 97.19921875 C134.87890625 97.85921875 134.87890625 98.51921875 134.87890625 99.19921875 C135.42546875 99.40675781 135.97203125 99.61429687 136.53515625 99.828125 C139.75344174 101.71082201 141.95451415 104.3589071 144.37890625 107.13671875 C147.99018293 111.31205821 147.99018293 111.31205821 152.22265625 114.828125 C152.76921875 115.28058594 153.31578125 115.73304688 153.87890625 116.19921875 C153.87890625 117.51921875 153.87890625 118.83921875 153.87890625 120.19921875 C155.85890625 120.19921875 157.83890625 120.19921875 159.87890625 120.19921875 C160.27078125 119.22984375 160.66265625 118.26046875 161.06640625 117.26171875 C162.87890625 114.19921875 162.87890625 114.19921875 165.56640625 113.32421875 C166.32953125 113.28296875 167.09265625 113.24171875 167.87890625 113.19921875 C168.20890625 111.54921875 168.53890625 109.89921875 168.87890625 108.19921875 C169.86890625 107.86921875 170.85890625 107.53921875 171.87890625 107.19921875 C172.33265625 106.58046875 172.78640625 105.96171875 173.25390625 105.32421875 C174.87890625 103.19921875 174.87890625 103.19921875 177.19921875 101.87109375 C180.18385955 100.00895634 182.08464159 97.98201126 184.37890625 95.32421875 C185.16136719 94.43476563 185.94382812 93.5453125 186.75 92.62890625 C187.45253906 91.82710938 188.15507813 91.0253125 188.87890625 90.19921875 C191.68833337 87.18422379 194.45080698 84.78608768 197.81640625 82.44921875 C201.73380107 79.60819223 203.80434132 76.44721674 206.3125 72.3671875 C208.44606035 69.41425485 211.00309341 67.65098914 213.98828125 65.6171875 C215.91123631 64.1749712 217.22528768 62.71869124 218.69140625 60.82421875 C219.77421875 59.52484375 219.77421875 59.52484375 220.87890625 58.19921875 C221.86890625 58.19921875 222.85890625 58.19921875 223.87890625 58.19921875 C224.20890625 56.87921875 224.53890625 55.55921875 224.87890625 54.19921875 C225.53890625 54.19921875 226.19890625 54.19921875 226.87890625 54.19921875 C226.96269531 53.61140625 227.04648437 53.02359375 227.1328125 52.41796875 C228.09500433 49.55658153 229.47069214 48.56560972 231.81640625 46.69921875 C234.69836726 44.39783428 236.44513666 42.62224982 237.87890625 39.19921875 C239.19890625 39.19921875 240.51890625 39.19921875 241.87890625 39.19921875 C242.21921875 37.80703125 242.21921875 37.80703125 242.56640625 36.38671875 C244.11316193 32.63031211 245.40443543 32.07008765 248.87890625 30.19921875 C249.20890625 29.20921875 249.53890625 28.21921875 249.87890625 27.19921875 C251.50955389 26.14150136 253.18171498 25.14648829 254.87890625 24.19921875 C258.29365946 21.95198945 258.29365946 21.95198945 259.87890625 18.19921875 C261.97710756 16.56794111 264.02000217 15.12002381 266.25390625 13.69921875 C266.88151855 13.29775635 267.50913086 12.89629395 268.15576172 12.48266602 C274.70753007 8.44946717 281.13518587 6.19921875 288.87890625 6.19921875 C288.87890625 5.53921875 288.87890625 4.87921875 288.87890625 4.19921875 C296.54340672 1.36537621 303.49502469 0.72008317 311.62890625 0.82421875 C312.77979736 0.83509521 313.93068848 0.84597168 315.11645508 0.85717773 C338.54926494 1.29611847 357.33017978 10.65049228 373.87890625 27.19921875 C376.74759348 30.39990595 379.35254073 33.72348832 381.87890625 37.19921875 C382.48605469 38.01777344 383.09320312 38.83632812 383.71875 39.6796875 C396.08948934 57.57259495 398.36722097 79.79910135 395.05761719 100.91894531 C393.65346193 108.46393954 391.1752633 115.29204953 387.87890625 122.19921875 C387.13640625 123.90078125 387.13640625 123.90078125 386.37890625 125.63671875 C384.57089965 128.72539668 382.49877898 130.75400421 379.87890625 133.19921875 C373.52385885 139.39371758 367.23174701 145.63024772 362.25390625 153.01171875 C359.84830135 156.24029374 358.2501716 157.19251319 354.87890625 159.19921875 C353.09999066 161.10925834 351.43865871 163.10097068 349.7578125 165.09765625 C347.94857877 167.12128982 346.08114308 168.83148725 344.00390625 170.57421875 C340.88947325 173.20950821 338.19325628 176.00608703 335.50390625 179.07421875 C331.63083876 183.47665014 327.48839696 187.37536692 323.08984375 191.24609375 C320.57638545 193.46646328 318.21911132 195.79742934 315.87890625 198.19921875 C314.95658203 199.08867187 314.95658203 199.08867187 314.015625 199.99609375 C310.00249609 203.89585743 306.52106159 207.78658255 303.3984375 212.4375 C301.87890625 214.19921875 301.87890625 214.19921875 299.53125 215.54296875 C296.19242851 217.62788821 294.04475979 220.34614296 291.62890625 223.38671875 C286.51887253 229.62032081 280.96397731 234.82002394 274.75390625 239.95703125 C271.37655512 242.80986952 268.53563054 245.49869477 266.00390625 249.13671875 C263.06377916 253.2879551 259.4790218 255.99248612 255.46484375 259.06640625 C250.44499431 263.20664461 246.38812791 268.25059422 242.18359375 273.19140625 C238.52380737 277.45231696 234.69769108 281.51453413 230.75390625 285.51171875 C230.25076904 286.02782715 229.74763184 286.54393555 229.22924805 287.07568359 C226.31245732 289.99967627 223.44567685 292.14921438 219.87890625 294.19921875 C218.02253332 295.78052548 218.02253332 295.78052548 216.37890625 297.51171875 C215.77304687 298.12789063 215.1671875 298.7440625 214.54296875 299.37890625 C212.71212705 301.31216175 212.71212705 301.31216175 210.75390625 304.13671875 C201.61965632 315.11538453 184.484783 319.90254877 170.87890625 322.19921875 C144.59070901 323.75454297 123.57663772 320.6376843 102.87890625 303.19921875 C98.58991656 299.192666 94.48890782 295.00072345 90.41186523 290.78027344 C88.25989714 288.56078858 86.06852764 286.38148007 83.87890625 284.19921875 C82.91017578 283.21308594 82.91017578 283.21308594 81.921875 282.20703125 C81.30957031 281.58570313 80.69726562 280.964375 80.06640625 280.32421875 C79.46183594 279.70804687 78.85726562 279.091875 78.234375 278.45703125 C76.36012884 276.66049015 74.46319238 274.98600448 72.48840332 273.30574036 C66.65919223 268.21409255 61.2399251 262.7082397 55.77148438 257.23706055 C54.5685467 256.03711989 53.36540589 254.83738285 52.16207886 253.63783264 C48.91643232 250.40096624 45.67398486 247.16091397 42.43240547 243.91997504 C40.40672387 241.89500633 38.38033106 239.87075215 36.35368347 237.84675026 C29.28372142 230.78601545 22.21632261 223.72272679 15.15136719 216.65698242 C8.56200768 210.06701993 1.9670662 203.48268005 -4.63046217 196.90089673 C-10.29867767 191.24572809 -15.96306042 185.58674005 -21.6244359 179.92472392 C-25.00454492 176.54435946 -28.38620247 173.16557984 -31.77171326 169.79062462 C-34.94771225 166.62426077 -38.11893635 163.45319347 -41.28646469 160.27835655 C-42.45221127 159.11155902 -43.61968449 157.94648378 -44.7889595 156.7832222 C-46.3783909 155.20144058 -47.96160812 153.61369597 -49.54333496 152.0242157 C-50.87725407 150.69111374 -50.87725407 150.69111374 -52.23812103 149.33108044 C-54.12109375 147.19921875 -54.12109375 147.19921875 -54.12109375 145.19921875 C-54.78109375 145.19921875 -55.44109375 145.19921875 -56.12109375 145.19921875 C-57.12109375 143.53255208 -58.12109375 141.86588542 -59.12109375 140.19921875 C-59.88421875 139.43609375 -60.64734375 138.67296875 -61.43359375 137.88671875 C-75.81726821 123.50304429 -81.91969006 102.28532015 -82.43359375 82.32421875 C-82.38738186 76.66656255 -81.56265245 71.39434264 -80.37109375 65.88671875 C-80.21423096 65.14631348 -80.05736816 64.4059082 -79.89575195 63.64306641 C-77.97780999 55.42121257 -74.49887364 49.65255461 -69.12109375 43.19921875 C-68.46446894 41.92333802 -67.84063815 40.63018381 -67.24609375 39.32421875 C-65.37013572 35.36135159 -62.92784514 32.40329761 -59.953125 29.203125 C-58.10762093 27.24441693 -58.10762093 27.24441693 -56.5703125 25.1640625 C-52.26899565 19.62464948 -47.38962924 16.88034287 -41.109375 13.83984375 C-38.10164862 12.38061644 -38.10164862 12.38061644 -36.15234375 10.16015625 C-33.46043172 7.56142579 -30.84107813 6.76064362 -27.30859375 5.57421875 C-26.12652344 5.16945313 -24.94445312 4.7646875 -23.7265625 4.34765625 C-15.63181976 1.76926582 -8.42969389 0.53806557 0 0 Z " fill="#8CBA54" transform="translate(368.12109375,43.80078125)"/>
<path d="M0 0 C1.15089111 0.01087646 2.30178223 0.02175293 3.48754883 0.03295898 C26.92035869 0.47189972 45.70127353 9.82627353 62.25 26.375 C65.11868723 29.5756872 67.72363448 32.89926957 70.25 36.375 C70.85714844 37.19355469 71.46429687 38.01210937 72.08984375 38.85546875 C84.46058309 56.7483762 86.73831472 78.9748826 83.42871094 100.09472656 C82.02455568 107.63972079 79.54635705 114.46783078 76.25 121.375 C75.5075 123.0765625 75.5075 123.0765625 74.75 124.8125 C72.9419934 127.90117793 70.86987273 129.92978546 68.25 132.375 C61.8949526 138.56949883 55.60284076 144.80602897 50.625 152.1875 C48.2193951 155.41607499 46.62126535 156.36829444 43.25 158.375 C41.47108441 160.28503959 39.80975246 162.27675193 38.12890625 164.2734375 C36.31967252 166.29707107 34.45223683 168.0072685 32.375 169.75 C29.260567 172.38528946 26.56435003 175.18186828 23.875 178.25 C20.00193251 182.65243139 15.85949071 186.55114817 11.4609375 190.421875 C8.9474792 192.64224453 6.59020507 194.97321059 4.25 197.375 C3.32767578 198.26445312 3.32767578 198.26445312 2.38671875 199.171875 C-1.62641016 203.07163868 -5.10784466 206.9623638 -8.23046875 211.61328125 C-9.75 213.375 -9.75 213.375 -12.09765625 214.71875 C-15.43647774 216.80366946 -17.58414646 219.52192421 -20 222.5625 C-25.11003372 228.79610206 -30.66492894 233.99580519 -36.875 239.1328125 C-40.25235113 241.98565077 -43.09327571 244.67447602 -45.625 248.3125 C-48.56512709 252.46373635 -52.14988445 255.16826737 -56.1640625 258.2421875 C-60.52203637 261.83652849 -64.09276761 266.08768263 -67.75 270.375 C-72.54293193 275.94295922 -77.49219238 281.24010217 -82.75 286.375 C-83.94456387 282.79130839 -83.49039469 282.06879709 -82.0625 278.6875 C-81.68738281 277.79160156 -81.31226563 276.89570313 -80.92578125 275.97265625 C-79.94169379 273.79850954 -78.88628209 271.72101039 -77.75 269.625 C-73.50220552 261.34767716 -71.13485486 251.65962361 -70.75 242.375 C-70.6984375 241.45332031 -70.646875 240.53164063 -70.59375 239.58203125 C-70.35963929 232.04171536 -71.69835406 225.59306344 -73.75 218.375 C-74.27699511 216.25151972 -74.79793318 214.12652612 -75.3125 212 C-76.29549121 208.0576879 -77.36854011 204.20058124 -78.75 200.375 C-79.74 200.375 -80.73 200.375 -81.75 200.375 C-83.36328125 198.25 -83.36328125 198.25 -85.0625 195.375 C-87.67326479 191.08076108 -90.40559199 187.05055099 -93.48828125 183.0859375 C-94.75 181.375 -94.75 181.375 -96.1875 178.625 C-98.12505683 175.83491817 -100.15597129 174.94142823 -103.12109375 173.40625 C-105.48571881 171.90922118 -106.37243115 169.77077191 -107.75 167.375 C-108.6575 166.776875 -109.565 166.17875 -110.5 165.5625 C-114.61837454 162.79051714 -117.91391552 159.46131108 -120.75 155.375 C-120.75 154.385 -120.75 153.395 -120.75 152.375 C-121.513125 152.313125 -122.27625 152.25125 -123.0625 152.1875 C-126.6424616 151.10518603 -126.90650045 149.54581923 -128.75 146.375 C-130.235 145.385 -130.235 145.385 -131.75 144.375 C-134.8883827 142.28274487 -136.15338403 140.74563371 -137.75 137.375 C-137.75 136.715 -137.75 136.055 -137.75 135.375 C-138.306875 135.2925 -138.86375 135.21 -139.4375 135.125 C-142.50201816 134.13110222 -144.39029887 132.54337401 -146.75 130.375 C-147.08 129.385 -147.41 128.395 -147.75 127.375 C-148.74 126.9109375 -148.74 126.9109375 -149.75 126.4375 C-151.75 125.375 -151.75 125.375 -152.5 123.25 C-152.5825 122.63125 -152.665 122.0125 -152.75 121.375 C-152.09 121.375 -151.43 121.375 -150.75 121.375 C-150.564375 119.704375 -150.564375 119.704375 -150.375 118 C-149.75 114.375 -149.75 114.375 -147.75 112.375 C-146.43 112.375 -145.11 112.375 -143.75 112.375 C-143.42 110.725 -143.09 109.075 -142.75 107.375 C-141.265 106.88 -141.265 106.88 -139.75 106.375 C-139.29625 105.75625 -138.8425 105.1375 -138.375 104.5 C-136.75 102.375 -136.75 102.375 -134.4296875 101.046875 C-131.4450467 99.18473759 -129.54426466 97.15779251 -127.25 94.5 C-126.07630859 93.16582031 -126.07630859 93.16582031 -124.87890625 91.8046875 C-124.17636719 91.00289063 -123.47382812 90.20109375 -122.75 89.375 C-119.94057288 86.36000504 -117.17809927 83.96186893 -113.8125 81.625 C-109.89510518 78.78397348 -107.82456493 75.62299799 -105.31640625 71.54296875 C-103.1828459 68.5900361 -100.62581284 66.82677039 -97.640625 64.79296875 C-95.71766994 63.35075245 -94.40361857 61.89447249 -92.9375 60 C-92.215625 59.13375 -91.49375 58.2675 -90.75 57.375 C-89.76 57.375 -88.77 57.375 -87.75 57.375 C-87.42 56.055 -87.09 54.735 -86.75 53.375 C-86.09 53.375 -85.43 53.375 -84.75 53.375 C-84.62431641 52.49328125 -84.62431641 52.49328125 -84.49609375 51.59375 C-83.53390192 48.73236278 -82.15821411 47.74139097 -79.8125 45.875 C-76.93053899 43.57361553 -75.18376959 41.79803107 -73.75 38.375 C-72.43 38.375 -71.11 38.375 -69.75 38.375 C-69.523125 37.446875 -69.29625 36.51875 -69.0625 35.5625 C-67.51574432 31.80609336 -66.22447082 31.2458689 -62.75 29.375 C-62.255 27.89 -62.255 27.89 -61.75 26.375 C-60.11935236 25.31728261 -58.44719127 24.32226954 -56.75 23.375 C-53.33524679 21.1277707 -53.33524679 21.1277707 -51.75 17.375 C-49.65179869 15.74372236 -47.60890408 14.29580506 -45.375 12.875 C-44.43358154 12.2728064 -44.43358154 12.2728064 -43.47314453 11.65844727 C-36.92137618 7.62524842 -30.49372038 5.375 -22.75 5.375 C-22.75 4.715 -22.75 4.055 -22.75 3.375 C-15.08549953 0.54115746 -8.13388156 -0.10413558 0 0 Z " fill="#8CBA54" transform="translate(679.75,44.625)"/>
<path d="M0 0 C1.32 0.33 2.64 0.66 4 1 C4 1.99 4 2.98 4 4 C5.65 4.66 7.3 5.32 9 6 C9 6.99 9 7.98 9 9 C9.556875 9.268125 10.11375 9.53625 10.6875 9.8125 C11.8321875 10.4003125 11.8321875 10.4003125 13 11 C14.2684375 11.61875 14.2684375 11.61875 15.5625 12.25 C18 14 18 14 19.25 16.75 C21.47344377 20.87925272 24.33176004 22.74691486 28.13671875 25.38671875 C29.05904297 26.18529297 29.05904297 26.18529297 30 27 C30 27.99 30 28.98 30 30 C30.7425 30.020625 31.485 30.04125 32.25 30.0625 C35.74175737 31.25287183 36.23166109 32.91644984 37.83984375 36.09375 C40.45279519 40.38708436 44.93259114 43.18784108 48.875 46.1875 C51 48 51 48 52 51 C53.63853141 52.05980926 53.63853141 52.05980926 55.625 53 C60.34534942 55.80191864 62.51541741 59.40697706 65.2578125 64.0703125 C67.52393498 67.88105658 70.10718835 71.42196201 72.71484375 75.00390625 C74 77 74 77 74 79 C74.99 79 75.98 79 77 79 C79.49070106 84.11440072 81.41860477 88.97120586 82.49609375 94.5625 C83.07359752 97.35600661 83.85605825 100.06576854 84.625 102.8125 C89.07042402 120.61676169 83.76872507 139.40119453 75.36328125 155.2109375 C74.10842482 157.77817959 73.33890253 160.120718 72.625 162.875 C71.26842571 167.24878263 69.10538075 168.7627155 65.35546875 171.21484375 C62.42713175 173.43416383 60.18965486 176.10207959 57.8125 178.875 C46.71476456 191.36955914 31.25052008 197.25691462 15 200 C-11.34346578 201.55859415 -32.2311192 198.39568002 -53 181 C-55.55610946 178.70124508 -58.04059871 176.33921202 -60.5 173.9375 C-61.09997803 173.35991943 -61.69995605 172.78233887 -62.31811523 172.18725586 C-66.23235044 168.25182343 -70 163.87168815 -70 158 C-70.99 158 -71.98 158 -73 158 C-79.12126256 144.68026945 -79.34624628 130.11639801 -79.875 115.6875 C-79.90668274 114.96106293 -79.93836548 114.23462585 -79.9710083 113.48617554 C-80.43142128 102.41332145 -80.68785661 90.41910759 -74 81 C-73.34 81 -72.68 81 -72 81 C-71.62875 79.7625 -71.62875 79.7625 -71.25 78.5 C-69.8345724 74.53680272 -68.35493364 70.5114491 -66 67 C-64.515 66.505 -64.515 66.505 -63 66 C-61.71813117 64.07571053 -61.71813117 64.07571053 -60.625 61.75 C-58.03273864 56.86040522 -55.28506894 53.33760133 -50.4375 50.5 C-46.57895232 48.12550912 -44.4800273 44.72004095 -42 41 C-41.01 40.67 -40.02 40.34 -39 40 C-37.14487165 37.72305592 -35.49604189 35.34219877 -33.81640625 32.93359375 C-33.21699219 32.29550781 -32.61757813 31.65742188 -32 31 C-30.68 31 -29.36 31 -28 31 C-27.9175 30.4225 -27.835 29.845 -27.75 29.25 C-26.78865284 26.36595852 -25.19629215 25.06318353 -23 23 C-22.34 22.01 -21.68 21.02 -21 20 C-18.33705985 18.22470656 -16.04294926 17.01431642 -13 16 C-12.855625 15.401875 -12.71125 14.80375 -12.5625 14.1875 C-11.78771548 11.17444911 -10.40319207 9.92255366 -8 8 C-6.68 8 -5.36 8 -4 8 C-3.71125 7.236875 -3.4225 6.47375 -3.125 5.6875 C-2 3 -2 3 0 0 Z " fill="#4AA458" transform="translate(524,166)"/>
<path d="M0 0 C7.67644555 6.75527208 11.63781602 15.96487832 13 26 C13.10534931 28.74316702 13.16710282 31.46196059 13.17700195 34.20507812 C13.18357315 35.00586288 13.19014435 35.80664764 13.19691467 36.63169861 C13.21652472 39.26488353 13.22827888 41.89801192 13.23828125 44.53125 C13.24235678 45.43396133 13.2464323 46.33667267 13.25063133 47.26673889 C13.27143349 52.03931444 13.28576385 56.81186168 13.29516602 61.58447266 C13.3062552 66.50735649 13.34070056 71.42979143 13.38033772 76.35251617 C13.40648664 80.14610632 13.41485601 83.93958876 13.41844749 87.73326111 C13.42331308 89.54812168 13.43492628 91.36297744 13.45348549 93.17774963 C13.47785448 95.7171709 13.47691704 98.25541929 13.4699707 100.79492188 C13.48278076 101.54003525 13.49559082 102.28514862 13.50878906 103.05284119 C13.45783774 108.17416916 12.19578591 111.03980327 9 115 C-7.46636737 129.28407772 -34.3144418 129.98914747 -54.6484375 129.24267578 C-61.39725181 128.754016 -66.94556232 127.02321987 -73 124 C-73.94488281 123.55398438 -74.88976562 123.10796875 -75.86328125 122.6484375 C-86.00183072 117.27125126 -91.65438056 107.91957733 -95.25 97.3125 C-97.17565273 88.5782894 -96.40180412 79.53780003 -94 71 C-93.66394072 69.66735112 -93.32983631 68.33420272 -93 67 C-92.34 67 -91.68 67 -91 67 C-90.7215625 66.01 -90.7215625 66.01 -90.4375 65 C-85.54186955 54.78303209 -75.74041408 48.54666623 -65.4375 44.5625 C-47.55973555 39.65779265 -27.7211461 43.02250829 -10 47 C-9.08300645 34.97719565 -9.93794883 26.13375636 -17 16 C-24.43820717 8.96808146 -35.78977972 10.38901176 -45.27734375 10.53125 C-53.49668826 10.89933318 -60.86037527 13.05260171 -68.6015625 15.6875 C-73.048309 17.15375564 -77.63647771 18.18176114 -82 16 C-82 15.34 -82 14.68 -82 14 C-82.66 14 -83.32 14 -84 14 C-86.97746781 8.87875536 -86.97746781 8.87875536 -87.0625 5.5625 C-84.40577502 -0.84489554 -80.57933251 -4.09406959 -74.1875 -6.75 C-50.17644973 -14.95219643 -20.79032304 -16.64618829 0 0 Z " fill="#3A424C" transform="translate(964,496)"/>
<path d="M0 0 C0.98291016 0.00563965 1.96582031 0.0112793 2.97851562 0.01708984 C18.89091233 0.28194681 34.6620341 4.56306632 46.2578125 15.96875 C57.58985212 28.15373884 61.61578541 39.78278709 61.6875 56.1875 C61.708125 57.35925781 61.72875 58.53101563 61.75 59.73828125 C61.79944175 70.62782707 61.79944175 70.62782707 58.4375 75.3125 C52.48626165 79.99751742 48.01178223 80.4621514 40.63964844 80.42602539 C39.85877869 80.42617142 39.07790894 80.42631744 38.27337646 80.4264679 C35.69784751 80.42577242 33.12239129 80.41799712 30.546875 80.41015625 C28.75897257 80.40829077 26.97106963 80.40686748 25.1831665 80.40586853 C20.48139022 80.40205357 15.77964492 80.39223198 11.07788086 80.38116455 C6.27848734 80.37092849 1.4790888 80.3663662 -3.3203125 80.36132812 C-12.7343886 80.35060881 -22.14844172 80.33354463 -31.5625 80.3125 C-31.13109145 83.00714996 -30.68803857 85.69902822 -30.23828125 88.390625 C-30.11876099 89.1448877 -29.99924072 89.89915039 -29.87609863 90.67626953 C-28.51872041 98.68631644 -25.82645433 106.70441276 -19.6875 112.375 C-10.79463536 117.88857608 -0.66373538 119.69668297 9.6875 119.625 C10.51016357 119.62153564 11.33282715 119.61807129 12.18041992 119.61450195 C20.34025711 119.47045333 28.38174938 118.53918662 35.625 114.5625 C39.86683917 112.67723815 43.9897516 113.15285603 48.4375 114.3125 C51.49297258 116.17559304 52.28171243 116.8451373 53.4375 120.3125 C54.18847784 125.40246089 54.18847784 125.40246089 53.4375 128.3125 C45.75002912 137.28803116 31.11588075 140.71726429 19.91967773 141.58520508 C16.35834669 141.67671099 12.81207115 141.67358253 9.25 141.625 C8.05697266 141.62822266 6.86394531 141.63144531 5.63476562 141.63476562 C-4.48965696 141.57354042 -13.19812528 140.12761563 -22.5625 136.3125 C-22.5625 135.6525 -22.5625 134.9925 -22.5625 134.3125 C-23.51125 134.168125 -24.46 134.02375 -25.4375 133.875 C-34.34520724 131.27842137 -40.57817725 122.69884568 -45.09765625 115.07421875 C-50.45670094 104.97063316 -52.88366076 95.10895459 -52.828125 83.703125 C-52.83003845 82.8144574 -52.8319519 81.92578979 -52.83392334 81.01019287 C-52.83527567 79.14123245 -52.83164629 77.27226233 -52.82324219 75.40332031 C-52.8125804 72.58376282 -52.82314379 69.76484984 -52.8359375 66.9453125 C-52.86125177 41.02507211 -52.86125177 41.02507211 -47 30.125 C-46.64413818 29.45065918 -46.28827637 28.77631836 -45.92163086 28.08154297 C-38.58708984 14.69500363 -27.44730303 7.11549369 -13.703125 1.05078125 C-9.12795261 -0.02472569 -4.68531108 -0.0278698 0 0 Z " fill="#3A434B" transform="translate(678.5625,483.6875)"/>
<path d="M0 0 C1.63388672 -0.01160156 1.63388672 -0.01160156 3.30078125 -0.0234375 C18.24012821 0.01269151 31.6760211 4.8286361 42.5546875 15.2109375 C54.04726904 27.22393783 56.85353853 40.80920517 56.875 56.9375 C56.89949219 57.91783203 56.92398438 58.89816406 56.94921875 59.90820312 C56.97410289 66.10020759 56.59137613 71.36704071 52.5 76.25 C43.85634738 80.43444893 34.49790972 79.62993246 25.12109375 79.54296875 C23.34034077 79.53736547 21.55958313 79.53309883 19.77882385 79.53010559 C15.11810275 79.51871443 10.45766726 79.48929729 5.79705811 79.45599365 C1.03076032 79.42516852 -3.73558414 79.41157379 -8.50195312 79.39648438 C-17.83476011 79.3644215 -27.1673562 79.31329535 -36.5 79.25 C-36.04137717 81.81346819 -35.57703559 84.3756787 -35.109375 86.9375 C-34.98095215 87.65873047 -34.8525293 88.37996094 -34.72021484 89.12304688 C-33.04327375 98.24727296 -29.87866111 106.22365579 -22.5 112.25 C-10.20423012 118.821877 5.37175848 120.84566394 19.04345703 117.65673828 C22.02985632 116.71467009 24.91389023 115.64523221 27.78027344 114.38452148 C32.73282822 112.23675591 37.10523277 111.64829638 42.5 112.25 C45.77021081 113.57200012 47.04565257 114.50652239 48.875 117.5 C49.72945798 121.25961512 49.60870983 123.53256117 48.5 127.25 C41.30054473 136.22261488 29.22039367 138.46746486 18.5 140.25 C13.67815194 140.67845667 8.90175061 140.77553097 4.0625 140.75 C2.79422363 140.74427979 1.52594727 140.73855957 0.21923828 140.73266602 C-16.83415558 140.40737006 -29.747005 134.59715303 -42.5 123.25 C-55.16677418 108.31610204 -57.6873741 92.02439717 -57.68530273 72.88916016 C-57.6874746 70.65116929 -57.70563574 68.41368435 -57.72460938 66.17578125 C-57.77457694 54.18555475 -57.80253462 41.78026026 -51.9375 31 C-51.58961426 30.33379639 -51.24172852 29.66759277 -50.88330078 28.98120117 C-47.59551583 22.9443368 -43.48052984 17.98666209 -38.5 13.25 C-37.571875 12.3425 -36.64375 11.435 -35.6875 10.5 C-24.26980262 2.44044891 -13.71807305 -0.09740644 0 0 Z " fill="#38414A" transform="translate(273.5,484.75)"/>
<path d="M0 0 C2.27788603 -0.00965001 4.55484676 -0.04069295 6.83251953 -0.07226562 C22.66213826 -0.18848833 37.98328051 2.96308435 49.93408203 14.19335938 C68.49836611 35.95551789 62.79406846 73.09893615 62.91134644 99.68215942 C62.92387862 102.17508904 62.94137929 104.66799874 62.96389771 107.16085815 C62.99382367 110.70176299 63.0036857 114.24218588 63.00830078 117.78320312 C63.02060226 118.85068787 63.03290375 119.91817261 63.045578 121.01800537 C63.02538538 127.81717337 61.93537522 131.94417365 58.05517578 137.61523438 C54.94379592 139.74407323 52.66634558 139.97939593 48.93798828 139.83789062 C44.86387614 138.75944917 42.85648637 135.67569608 40.68017578 132.24023438 C39.1630816 129.20604601 39.51841337 126.05011136 39.5065918 122.72045898 C39.49990479 121.94458435 39.49321777 121.16870972 39.48632812 120.36932373 C39.47225971 118.68056253 39.46037139 116.99178211 39.45038033 115.30299187 C39.43397126 112.62449639 39.41072925 109.94614132 39.38548279 107.26771545 C39.3147341 99.65063494 39.2548129 92.03349452 39.20336914 84.41625977 C39.17143108 79.75840973 39.1301094 75.10071693 39.08317375 70.44299507 C39.06723108 68.67254046 39.05487413 66.90204958 39.04626656 65.13154411 C39.03400084 62.64279273 39.00980233 60.15440484 38.9831543 57.66577148 C38.98256516 56.94386124 38.98197601 56.22195099 38.98136902 55.47816467 C38.88571154 48.67637296 38.13064476 41.54328601 34.11767578 35.86523438 C32.50523462 33.53987413 31.59209481 31.97599146 30.68017578 29.24023438 C28.41290608 28.10527788 28.41290608 28.10527788 25.68017578 27.24023438 C24.80103516 26.88703125 23.92189453 26.53382813 23.01611328 26.16992188 C8.68229843 21.06420946 -5.82620474 22.43101387 -20.31982422 26.24023438 C-22.10978553 26.64370926 -23.90125499 27.04061307 -25.69482422 27.42773438 C-26.89107422 27.69585938 -28.08732422 27.96398437 -29.31982422 28.24023438 C-29.15814758 28.87784698 -28.99647095 29.51545959 -28.82989502 30.1723938 C-28.15341348 34.24111822 -28.16410692 38.20784631 -28.15869141 42.32568359 C-28.1537265 43.23200531 -28.1487616 44.13832703 -28.14364624 45.07211304 C-28.1290703 48.0630571 -28.12223081 51.05394816 -28.11669922 54.04492188 C-28.11094473 56.12850953 -28.10518704 58.21209718 -28.09942627 60.29568481 C-28.08892979 64.6618067 -28.08307803 69.02791024 -28.07958984 73.39404297 C-28.07410296 78.98151566 -28.05006495 84.56874495 -28.02161789 90.15614128 C-28.002973 94.45932724 -27.99778495 98.76245471 -27.99625397 103.06567764 C-27.99323194 105.12530984 -27.98521864 107.18494111 -27.97206879 109.24453354 C-27.95496707 112.12854188 -27.95689849 115.01195727 -27.96337891 117.89599609 C-27.95416412 118.74194336 -27.94494934 119.58789062 -27.93545532 120.45947266 C-27.98345583 127.29715741 -29.26434845 131.99355156 -34.00732422 137.17773438 C-38.41308715 139.92094526 -40.2068229 140.05182189 -45.31982422 139.24023438 C-48.32387983 137.00317168 -49.98438523 135.52554792 -50.93953228 131.86567688 C-51.30472916 129.34444697 -51.4536434 126.96644593 -51.46699524 124.4206543 C-51.47415054 123.47862152 -51.48130585 122.53658875 -51.48867798 121.56600952 C-51.49136688 120.54455841 -51.49405579 119.5231073 -51.49682617 118.47070312 C-51.50339737 117.38560455 -51.50996857 116.30050598 -51.51673889 115.18252563 C-51.53642501 111.59759449 -51.54812102 108.01270504 -51.55810547 104.42773438 C-51.562181 103.20291351 -51.56625652 101.97809265 -51.57045555 100.71615601 C-51.59129128 94.23948333 -51.60560664 87.76283172 -51.61499023 81.28613281 C-51.62306641 75.92209549 -51.64423743 70.55828096 -51.67651367 65.19433594 C-51.71486631 58.71762251 -51.7337461 52.24113565 -51.73827171 45.76431274 C-51.74314983 43.29551959 -51.75479842 40.82673028 -51.77330971 38.35800171 C-51.79757909 34.90831992 -51.79675863 31.4595061 -51.78979492 28.00976562 C-51.80260498 26.98831451 -51.81541504 25.9668634 -51.82861328 24.91445923 C-51.79648619 20.55593866 -51.76319453 17.9756874 -49.47770691 14.18457031 C-36.38985812 2.39191131 -16.75321945 0.04281973 0 0 Z " fill="#3B444D" transform="translate(420.31982421875,484.759765625)"/>
<path d="M0 0 C6.94163104 4.24382632 9.02643437 9.9271743 11.4609375 17.40234375 C11.84928772 18.53287674 12.23763794 19.66340973 12.63775635 20.82820129 C13.6861701 23.89057362 14.71546116 26.95858081 15.73712921 30.029953 C16.80714164 33.22981577 17.9026236 36.42090125 18.99755859 39.61230469 C19.44210349 40.90894674 19.8865918 42.20560819 20.33102417 43.50228882 C20.55207699 44.14720654 20.77312981 44.79212425 21.0008812 45.45658493 C21.67434003 47.42517429 22.34481857 49.39475509 23.01443481 51.36465454 C27.38744481 64.21921401 31.98300228 76.99029257 36.625 89.75 C37.34835555 91.74593591 38.0715063 93.74194605 38.79443359 95.73803711 C39.45906785 97.57023756 40.12393061 99.40235514 40.7890625 101.234375 C41.08709778 102.05573441 41.38513306 102.87709381 41.69219971 103.7233429 C43.07072231 107.50729853 44.47369434 111.27234575 46 115 C48.05882953 111.91175571 48.85195791 109.48432775 49.875 105.9375 C50.99380272 102.05929729 52.24940801 98.32437347 53.7890625 94.59765625 C56.73240133 87.36371411 59.07328767 79.91871199 61.5 72.5 C66.92748344 55.90761861 66.92748344 55.90761861 70.09716797 48.22753906 C71.64429253 44.41035019 72.96952033 40.51766026 74.3125 36.625 C74.60882324 35.7779248 74.90514648 34.93084961 75.21044922 34.05810547 C76.78853003 29.54015246 78.33194178 25.01320957 79.83203125 20.46875 C80.13262451 19.57333496 80.43321777 18.67791992 80.74291992 17.75537109 C81.31533425 16.04842617 81.87734087 14.3379423 82.42700195 12.62353516 C84.1697712 7.46706677 85.9839693 3.74829532 90 0 C92.75390625 -0.65625 92.75390625 -0.65625 95.5625 -0.5 C96.49191406 -0.4690625 97.42132813 -0.438125 98.37890625 -0.40625 C101.01479206 0.00229266 102.75544305 0.57760661 105 2 C107.6925916 6.57740573 107.76099267 11.9918659 106.47897339 17.05957031 C105.72529386 19.25718378 104.89560533 21.40758595 104.02734375 23.5625 C103.71294846 24.37477051 103.39855316 25.18704102 103.07463074 26.02392578 C102.04092854 28.6874734 100.98910927 31.34347775 99.9375 34 C99.20858595 35.87049523 98.48123316 37.74159955 97.75537109 39.61328125 C96.63190401 42.50975742 95.50750255 45.40582857 94.37823486 48.30004883 C90.85728977 57.32749523 87.45047295 66.39565796 84.06689453 75.47531128 C82.52353141 79.61219851 80.97014443 83.74531938 79.41796875 87.87890625 C77.51818006 92.93921333 75.62638844 98.00224524 73.7522583 103.07211304 C72.65585714 106.030431 71.54546568 108.98349766 70.4375 111.9375 C70.06834473 112.94876953 69.69918945 113.96003906 69.31884766 115.00195312 C66.10192114 123.51209283 61.93439599 131.66709798 54.27734375 136.97265625 C48.78353539 139.45099518 42.95596921 138.53043233 37.3125 137 C36.549375 136.67 35.78625 136.34 35 136 C35 135.34 35 134.68 35 134 C34.41404053 133.80140381 33.82808105 133.60280762 33.22436523 133.39819336 C30.12291196 131.44867926 28.95226238 128.83396055 27.41015625 125.62890625 C27.07137955 124.93632217 26.73260284 124.2437381 26.38356018 123.53016663 C21.22453649 112.62834548 17.2785746 101.19447495 13.14666367 89.87601852 C11.9485501 86.6009419 10.73958299 83.32988411 9.53051758 80.05883789 C9.28911387 79.4057109 9.04771017 78.7525839 8.7989912 78.07966518 C8.31194418 76.76209532 7.82484271 75.44454558 7.33768654 74.12701607 C6.61142246 72.1617903 5.8862652 70.19615897 5.16130066 68.23045349 C0.92941585 56.7636954 -3.41099724 45.34016517 -7.8125 33.9375 C-8.28684982 32.70578568 -8.28684982 32.70578568 -8.77078247 31.44918823 C-9.64379108 29.18296126 -10.51856422 26.91742864 -11.39453125 24.65234375 C-11.64761047 23.99693604 -11.9006897 23.34152832 -12.16143799 22.66625977 C-13.04069176 20.40204467 -13.91306803 18.17386395 -15 16 C-16.13934705 7.04386685 -16.13934705 7.04386685 -13.9765625 3.1640625 C-10.14141385 -0.50157682 -4.96720916 -1.54976926 0 0 Z " fill="#38424B" transform="translate(90,486)"/>
<path d="M0 0 C0.76183594 -0.00515625 1.52367187 -0.0103125 2.30859375 -0.015625 C4.84539809 0.28333981 6.41180201 0.88012867 8.5625 2.25 C10.92258817 5.79013225 10.79713644 7.26121955 10.7578125 11.44921875 C10.75136719 12.65771484 10.74492188 13.86621094 10.73828125 15.11132812 C10.72152344 16.37396484 10.70476563 17.63660156 10.6875 18.9375 C10.67847656 20.21173828 10.66945313 21.48597656 10.66015625 22.79882812 C10.63655641 25.94940627 10.60363194 29.09960983 10.5625 32.25 C11.39482147 32.23667633 11.39482147 32.23667633 12.24395752 32.2230835 C18.01881611 32.13459407 23.79348216 32.07425947 29.56884766 32.03027344 C31.72420067 32.01015724 33.87949911 31.98286075 36.03466797 31.94824219 C39.13262395 31.89972514 42.22985846 31.87703127 45.328125 31.859375 C46.29179993 31.83872986 47.25547485 31.81808472 48.24835205 31.79681396 C54.94456379 31.79456767 54.94456379 31.79456767 58.13964844 34.14941406 C60.18201035 37.16459627 60.76090079 39.00985652 60.875 42.625 C60.93107422 43.78128906 60.93107422 43.78128906 60.98828125 44.9609375 C60.35873679 48.34546093 59.37946078 49.23238686 56.5625 51.25 C53.07777013 51.81725216 49.63161603 51.71440843 46.109375 51.640625 C45.09401672 51.63496521 44.07865845 51.62930542 43.03253174 51.62347412 C39.79203999 51.60109753 36.5526571 51.55089755 33.3125 51.5 C31.11459931 51.47993671 28.91668128 51.46168565 26.71875 51.4453125 C21.3329555 51.40122871 15.94780697 51.33430373 10.5625 51.25 C10.67153568 58.8407905 10.78442823 66.4315161 10.90183926 74.02218151 C10.95628431 77.54935071 11.00955005 81.07652832 11.05981445 84.60375977 C11.19185087 93.82004457 11.35215264 103.0351017 11.5625 112.25 C11.59938934 113.88077484 11.59938934 113.88077484 11.63702393 115.54449463 C11.71059243 118.42249694 11.80513692 121.29877541 11.91015625 124.17578125 C11.93049423 124.97960739 11.95083221 125.78343353 11.9717865 126.61161804 C12.18518447 131.54660673 13.17635686 135.68567131 14.92918396 140.30729675 C15.5625 142.25 15.5625 142.25 15.5625 145.25 C20.90222117 146.83703542 26.41628 146.4343558 31.9375 146.4375 C33.0615625 146.44974609 34.185625 146.46199219 35.34375 146.47460938 C40.84055631 146.48435549 45.4140641 146.39380209 50.5625 144.25 C54.92752411 143.78231885 56.99388804 143.9388727 60.875 146.0625 C63.5625 148.25 63.5625 148.25 65.5625 151.25 C65.76100603 154.95544587 65.73914871 157.72005387 64.5625 161.25 C52.89333023 171.17276341 36.37187534 172.18725201 21.85546875 171.03515625 C11.99420132 169.65302585 2.56696024 163.09958084 -3.4375 155.25 C-10.8130756 142.84213063 -10.58382506 129.97355592 -10.59863281 115.85375977 C-10.60359772 114.69107071 -10.60856262 113.52838165 -10.61367798 112.33045959 C-10.62813127 108.53410223 -10.63506869 104.73778645 -10.640625 100.94140625 C-10.64492694 98.95657644 -10.64922945 96.97174662 -10.6535995 94.98691696 C-10.66534424 89.47326305 -10.67292605 83.95961904 -10.6763947 78.44595391 C-10.68089224 71.34010756 -10.69854593 64.23445195 -10.7273953 57.1286636 C-10.74902104 51.60902886 -10.75909906 46.08944787 -10.76043582 40.56977123 C-10.76148103 37.28327596 -10.76879075 33.9970023 -10.78525543 30.71054268 C-10.80228745 27.05370572 -10.80044378 23.39733891 -10.79394531 19.74047852 C-10.8031601 18.66038513 -10.81237488 17.58029175 -10.8218689 16.46746826 C-10.7914585 11.01155154 -10.65103821 6.89471878 -7.4375 2.25 C-4.32763793 0.17675862 -3.54641613 -0.02392186 0 0 Z " fill="#39434C" transform="translate(535.4375,454.75)"/>
<path d="M0 0 C1.66427388 -0.02155711 3.32843507 -0.05563366 4.9921875 -0.10253906 C21.69229376 -0.56827247 21.69229376 -0.56827247 27.55078125 4.91259766 C30.28792328 8.2996724 30.04116073 11.14015735 29.75683594 15.4050293 C28.51259173 18.87581578 27.71445603 20.80309666 24.56933594 22.7800293 C19.93529086 23.80981709 15.60054506 23.72993468 10.96386719 22.9128418 C2.8048709 21.6209179 -6.17234348 20.93244995 -13.62988281 24.9440918 C-17.19561593 28.1731092 -19.00393904 30.55446234 -19.62635803 35.36929321 C-19.78724607 39.18563163 -19.82345506 42.99258606 -19.81738281 46.8112793 C-19.82987115 48.25542866 -19.84421705 49.69956302 -19.86030579 51.14367676 C-19.89833337 54.95934092 -19.91349211 58.77474756 -19.9230957 62.59057617 C-19.93541188 66.35694192 -19.96512475 70.12314426 -19.99511719 73.8894043 C-20.00078768 74.62697464 -20.00645817 75.36454498 -20.01230049 76.12446594 C-20.05871367 82.04153773 -20.11377293 87.95851595 -20.17893791 93.87541199 C-20.2182141 97.50336149 -20.2478594 101.13087139 -20.25640869 104.7590332 C-20.26721161 108.88140369 -20.32581308 113.0018598 -20.38769531 117.1237793 C-20.38388351 118.35052368 -20.38007172 119.57726807 -20.37614441 120.84118652 C-20.51841316 127.57083889 -21.2782686 131.80950526 -25.66777039 137.02429199 C-28.65160782 139.63944509 -32.36084235 139.9837109 -36.23925781 139.94799805 C-38.94656166 139.21444008 -39.66188771 138.10468697 -41.18066406 135.7800293 C-44.523759 129.86445113 -44.39225389 123.4369514 -44.38842773 116.80444336 C-44.39178635 115.96131592 -44.39514496 115.11818848 -44.39860535 114.24951172 C-44.40807281 111.47321075 -44.41005647 108.69697039 -44.41113281 105.9206543 C-44.41434876 103.98020402 -44.41771308 102.03975398 -44.42121887 100.0993042 C-44.42719995 96.03421466 -44.42905987 91.96914636 -44.4284668 87.90405273 C-44.42836534 82.71491049 -44.44200564 77.52590556 -44.45923901 72.33679581 C-44.47040132 68.32858668 -44.47238469 64.32041027 -44.47185707 60.31218719 C-44.47303127 58.40017983 -44.47742133 56.48817145 -44.48518944 54.5761795 C-44.54737275 37.68734646 -43.89241394 21.275023 -31.49707031 8.31518555 C-21.98352882 0.25258279 -11.83258416 0.1150713 0 0 Z " fill="#3C454F" transform="translate(822.2431640625,484.594970703125)"/>
<path d="M0 0 C1.02746338 0.17644043 1.02746338 0.17644043 2.07568359 0.35644531 C7.11144724 1.31110402 11.12958006 2.83765502 16.0625 4.6875 C16.0625 16.2375 16.0625 27.7875 16.0625 39.6875 C4.76129518 45.33810241 4.76129518 45.33810241 -0.6875 46.9375 C-1.73421875 47.25203125 -2.7809375 47.5665625 -3.859375 47.890625 C-15.99860798 51.03326907 -28.89504994 51.16893808 -39.9375 44.6875 C-45.11560034 40.93083897 -47.75752583 37.54923366 -49.625 31.4375 C-50.43878727 24.27617203 -50.94134827 16.99008765 -46.9375 10.6875 C-34.42725802 -3.1711513 -17.33572258 -3.01257527 0 0 Z " fill="#F7F8F8" transform="translate(938.9375,557.3125)"/>
<path d="M0 0 C6.69400671 5.55282469 10.72024405 11.784418 12.625 20.25 C12.625 25.53 12.625 30.81 12.625 36.25 C-11.465 36.25 -35.555 36.25 -60.375 36.25 C-61.5367022 24.63297802 -60.5606329 16.2869381 -54.16796875 6.4375 C-41.38901298 -9.15338286 -16.04144895 -11.14074063 0 0 Z " fill="#F6F7F8" transform="translate(297.375,509.75)"/>
<path d="M0 0 C0.86786133 0.00064453 1.73572266 0.00128906 2.62988281 0.00195312 C10.02479399 0.17258375 15.70864132 1.81284465 22.1875 5.5 C22.1875 6.16 22.1875 6.82 22.1875 7.5 C22.78433594 7.59023438 23.38117187 7.68046875 23.99609375 7.7734375 C28.52401931 9.27467485 31.04934143 14.35938637 33.203125 18.41015625 C35.728376 24.04245628 36.32635842 29.12457676 36.3125 35.25 C36.31507813 36.39984375 36.31765625 37.5496875 36.3203125 38.734375 C36.1875 41.5 36.1875 41.5 35.1875 42.5 C32.91758113 42.59439978 30.64468033 42.61742226 28.37280273 42.61352539 C27.30456772 42.61374443 27.30456772 42.61374443 26.2147522 42.6139679 C23.85016888 42.6132687 21.48566339 42.60547606 19.12109375 42.59765625 C17.48584537 42.59579209 15.85059643 42.59436818 14.21534729 42.59336853 C9.90315215 42.58954318 5.59099048 42.57971275 1.27880859 42.56866455 C-3.11815946 42.5584508 -7.51513289 42.55387099 -11.91210938 42.54882812 C-20.54558831 42.53809049 -29.17904 42.52101387 -37.8125 42.5 C-37.8243924 41.07301849 -37.83283425 39.64600799 -37.83984375 38.21899414 C-37.84491943 37.42433243 -37.84999512 36.62967072 -37.85522461 35.81092834 C-37.79931274 32.78671523 -37.35906167 29.90942906 -36.8125 26.9375 C-36.626875 25.90496094 -36.44125 24.87242187 -36.25 23.80859375 C-36.0334375 22.66583984 -36.0334375 22.66583984 -35.8125 21.5 C-34.8225 21.5 -33.8325 21.5 -32.8125 21.5 C-32.379375 20.1696875 -32.379375 20.1696875 -31.9375 18.8125 C-31.56625 17.719375 -31.195 16.62625 -30.8125 15.5 C-30.55339844 14.68144531 -30.29429687 13.86289062 -30.02734375 13.01953125 C-28.55160985 9.95892557 -27.03962467 8.7871371 -24.25 6.875 C-23.44433594 6.30523437 -22.63867188 5.73546875 -21.80859375 5.1484375 C-14.73160903 1.25471188 -8.02766256 -0.05607215 0 0 Z " fill="#F7F8F8" transform="translate(683.8125,503.5)"/>
<path d="M0 0 C0.33 0 0.66 0 1 0 C1.02714735 2.22909871 1.04646254 4.45829367 1.0625 6.6875 C1.07410156 7.92886719 1.08570313 9.17023438 1.09765625 10.44921875 C1 14 1 14 0.5078125 16.35546875 C-0.27466119 20.43035099 -0.19134291 24.48503407 -0.1875 28.625 C-0.18669434 29.51421143 -0.18588867 30.40342285 -0.18505859 31.31958008 C-0.11097143 40.80484372 -0.11097143 40.80484372 2 50 C2.66 50.33 3.32 50.66 4 51 C4.6328125 53.94140625 4.6328125 53.94140625 5.125 57.5625 C5.29257812 58.76003906 5.46015625 59.95757812 5.6328125 61.19140625 C5.81457031 62.58166016 5.81457031 62.58166016 6 64 C6.99 64.33 7.98 64.66 9 65 C10.12962746 67.73067425 10.91194068 70.50113077 11.7421875 73.3359375 C13.28200527 76.59729067 14.89481235 77.30945357 18 79 C18.8125 81.6875 18.8125 81.6875 19 84 C14.04229154 82.62285876 12.57435423 80.34422277 10 76 C9.62101562 75.44570312 9.24203125 74.89140625 8.8515625 74.3203125 C2.06107222 64.24270591 -1.84190145 52.88564722 -4 41 C-4.13148438 40.29617187 -4.26296875 39.59234375 -4.3984375 38.8671875 C-4.70204704 36.906034 -4.87574322 34.9807992 -5 33 C-5.06445312 32.09507812 -5.12890625 31.19015625 -5.1953125 30.2578125 C-5.55292137 20.69773542 -4.35380699 8.70761398 0 0 Z " fill="#9FBF74" transform="translate(291,99)"/>
<path d="M0 0 C0.66 0 1.32 0 2 0 C2 1.65 2 3.3 2 5 C0.68 5.33 -0.64 5.66 -2 6 C-2 6.99 -2 7.98 -2 9 C-7.75 12 -7.75 12 -10 12 C-10.144375 12.78375 -10.28875 13.5675 -10.4375 14.375 C-11 17 -11 17 -12 19 C-12.99 19 -13.98 19 -15 19 C-15 19.99 -15 20.98 -15 22 C-16.2065625 22.4640625 -16.2065625 22.4640625 -17.4375 22.9375 C-25.02313595 26.73932704 -30.0862343 33.73157798 -34 41 C-35.66666667 42.66666667 -37.33333333 44.33333333 -39 46 C-39.7661076 47.38705798 -40.5152219 48.78359408 -41.25 50.1875 C-42.76094275 52.76727686 -43.52455777 53.8035694 -46.31640625 54.95703125 C-48.55188203 55.44330845 -50.72206552 55.80148719 -53 56 C-49.75830275 48.86508792 -43.92577403 43.91713164 -38 39 C-37.02133885 37.89263821 -36.06385615 36.76630491 -35.125 35.625 C-33.05176603 33.125394 -30.93254977 31.01409278 -28.4375 28.9375 C-23.77193769 24.99248786 -19.73925039 20.50535242 -15.65600586 15.97436523 C-12.62604362 12.63841137 -9.55512058 9.78986581 -6 7 C-4.36339994 5.18237646 -2.85499047 3.30336534 -1.33203125 1.390625 C-0.89246094 0.93171875 -0.45289063 0.4728125 0 0 Z " fill="#E1EFCB" transform="translate(725,200)"/>
<path d="M0 0 C6.58477654 9.8771648 3.9090757 29.42189989 1.8125 40.6875 C0.32848097 47.5027343 -1.97973759 53.72489169 -5 60 C-5.48919922 61.02480469 -5.48919922 61.02480469 -5.98828125 62.0703125 C-6.63653416 63.39139664 -7.31313569 64.69857288 -8 66 C-8.66 66 -9.32 66 -10 66 C-10 60.72 -10 55.44 -10 50 C-8.68 50 -7.36 50 -6 50 C-1.63660429 38.21883159 -0.66229189 26.81717856 -0.375 14.3125 C-0.33670856 12.91729633 -0.2976509 11.52211348 -0.2578125 10.12695312 C-0.16437237 6.75142831 -0.07860584 3.3758973 0 0 Z " fill="#9ABC6D" transform="translate(761,106)"/>
<path d="M0 0 C1.16331677 3.48995031 1.19117 6.67496255 1.24609375 10.30859375 C1.27908247 11.79362457 1.31229312 13.27865047 1.34570312 14.76367188 C1.39268648 17.08679176 1.43702742 19.40989957 1.47680664 21.7331543 C1.62753558 30.13516458 1.91796933 38.2331211 3.58227539 46.50415039 C4.00830482 49.04962019 4.07144465 51.4242322 4 54 C-0.5579029 50.16176598 -2.04925531 46.74217473 -3 41 C-3.23199779 38.1078001 -3.23543114 35.24372094 -3.1953125 32.34375 C-3.1924826 31.55601196 -3.18965271 30.76827393 -3.18673706 29.95666504 C-3.17565169 27.47094736 -3.1505701 24.9856065 -3.125 22.5 C-3.1149551 20.80208858 -3.10583191 19.10417145 -3.09765625 17.40625 C-3.07575071 13.27069086 -3.04130326 9.13540904 -3 5 C-2.34 5 -1.68 5 -1 5 C-0.67 3.35 -0.34 1.7 0 0 Z " fill="#74B95B" transform="translate(444,262)"/>
<path d="M0 0 C7.33239995 2.04625115 11.06275313 6.01734461 15.82421875 11.64453125 C18.98453974 15.06584823 22.46542708 18.11351006 26.00024414 21.14282227 C30.66735634 25.25338189 30.66735634 25.25338189 31 29 C31.61875 29.103125 32.2375 29.20625 32.875 29.3125 C35 30 35 30 37 33 C37 34.32 37 35.64 37 37 C35.1875 36.8125 35.1875 36.8125 33 36 C32.54625 35.236875 32.0925 34.47375 31.625 33.6875 C30.1530162 30.81831441 30.1530162 30.81831441 27.25 29.1875 C23.13162546 26.41551714 19.83608448 23.08631108 17 19 C17 18.01 17 17.02 17 16 C16.236875 15.938125 15.47375 15.87625 14.6875 15.8125 C11.1075384 14.73018603 10.84349955 13.17081923 9 10 C8.01 9.34 7.02 8.68 6 8 C2.87306105 5.91537404 1.62390709 4.33803124 0 1 C0 0.67 0 0.34 0 0 Z " fill="#80BD61" transform="translate(542,181)"/>
<path d="M0 0 C0.495 1.485 0.495 1.485 1 3 C0.01 3.33 -0.98 3.66 -2 4 C-2.68025637 5.99541868 -3.34490497 7.99617991 -4 10 C-6.20741845 13.54763679 -7.14816359 14.7870409 -11.25 15.8125 C-12.1575 15.874375 -13.065 15.93625 -14 16 C-14 16.66 -14 17.32 -14 18 C-14.99 18 -15.98 18 -17 18 C-16.7525 19.3303125 -16.7525 19.3303125 -16.5 20.6875 C-17 24 -17 24 -18.60546875 25.23046875 C-20.03919843 26.01861659 -21.47696165 26.79945662 -22.91796875 27.57421875 C-25.31216962 29.21377469 -26.16348247 30.63847172 -27.5 33.1875 C-28.85337937 35.65706855 -29.49857357 36.76951318 -32.08203125 37.95703125 C-34.3125 38.5 -34.3125 38.5 -38 39 C-37.34 38.01 -36.68 37.02 -36 36 C-35.01 36 -34.02 36 -33 36 C-32.67 34.68 -32.34 33.36 -32 32 C-31.34 32 -30.68 32 -30 32 C-29.91621094 31.4121875 -29.83242188 30.824375 -29.74609375 30.21875 C-28.78390192 27.35736278 -27.40821411 26.36639097 -25.0625 24.5 C-22.18053899 22.19861553 -20.43376959 20.42303107 -19 17 C-17.68 17 -16.36 17 -15 17 C-14.773125 16.071875 -14.54625 15.14375 -14.3125 14.1875 C-12.76574432 10.43109336 -11.47447082 9.8708689 -8 8 C-7.67 7.01 -7.34 6.02 -7 5 C-5.36368108 3.95107762 -3.69514137 2.95093297 -2 2 C-1.34 1.34 -0.68 0.68 0 0 Z " fill="#A1C275" transform="translate(625,66)"/>
<path d="M0 0 C1.33528768 -0.02075493 2.67057415 -0.04158767 4.00585938 -0.0625 C5.26849609 -0.06765625 6.53113281 -0.0728125 7.83203125 -0.078125 C8.98034424 -0.0874707 10.12865723 -0.09681641 11.31176758 -0.10644531 C14.1875 0.25 14.1875 0.25 16.0847168 1.77050781 C16.44863525 2.25874023 16.81255371 2.74697266 17.1875 3.25 C16.3310791 3.23952637 15.4746582 3.22905273 14.59228516 3.21826172 C11.3680117 3.18386366 8.14383282 3.15894885 4.91943359 3.14013672 C3.53268324 3.13017397 2.14595335 3.11659882 0.75927734 3.09912109 C-7.30290344 3.00016292 -14.96974803 3.17652131 -22.8125 5.25 C-22.8125 5.91 -22.8125 6.57 -22.8125 7.25 C-24.37216218 7.758783 -25.93539241 8.25663469 -27.5 8.75 C-28.37011719 9.0284375 -29.24023438 9.306875 -30.13671875 9.59375 C-32.80641677 10.24850805 -35.07646684 10.36831495 -37.8125 10.25 C-36.28480219 7.10075263 -35.34708193 5.5192709 -32.17578125 3.921875 C-31.16902344 3.61765625 -30.16226563 3.3134375 -29.125 3 C-28.13113281 2.68546875 -27.13726563 2.3709375 -26.11328125 2.046875 C-17.46643009 -0.04064883 -8.85605224 0.03505612 0 0 Z " fill="#EEF9E5" transform="translate(679.8125,42.75)"/>
<path d="M0 0 C1.46295922 4.516389 -0.10131587 7.5474232 -2 11.6875 C-2.27972656 12.37650391 -2.55945313 13.06550781 -2.84765625 13.77539062 C-3.75 15.76171875 -3.75 15.76171875 -6 19 C-9.5859375 19.734375 -9.5859375 19.734375 -13 20 C-14.67909198 21.55240761 -14.67909198 21.55240761 -15.625 23.5625 C-16.80078125 25.4765625 -16.80078125 25.4765625 -18 27 C-20.8125 27.4375 -20.8125 27.4375 -23 27 C-19.75035873 21.70275313 -15.79839381 17.40699492 -11.5 12.9375 C-5.50915953 6.68079018 -5.50915953 6.68079018 0 0 Z " fill="#EAF6DE" transform="translate(751,172)"/>
<path d="M0 0 C0 0.33 0 0.66 0 1 C-8.90848201 1.27618442 -17.38805751 0.47728489 -26.1875 -0.875 C-27.41275391 -1.04902344 -28.63800781 -1.22304688 -29.90039062 -1.40234375 C-31.06119141 -1.57636719 -32.22199219 -1.75039063 -33.41796875 -1.9296875 C-34.46750732 -2.08679199 -35.5170459 -2.24389648 -36.59838867 -2.40576172 C-37.39092041 -2.60186035 -38.18345215 -2.79795898 -39 -3 C-39.33 -3.66 -39.66 -4.32 -40 -5 C-27.98410138 -9.00529954 -11.33102587 -4.98116385 0 0 Z " fill="#A4C27C" transform="translate(402,50)"/>
<path d="M0 0 C8.0541926 1.30794581 8.0541926 1.30794581 11.5625 3.875 C13 6 13 6 13 10 C13.99 10 14.98 10 16 10 C16 10.66 16 11.32 16 12 C16.99 12 17.98 12 19 12 C19 12.99 19 13.98 19 15 C19.66 15 20.32 15 21 15 C21 15.99 21 16.98 21 18 C21.99 18 22.98 18 24 18 C23.67 19.65 23.34 21.3 23 23 C17.58052896 18.47783954 12.53850008 13.69081573 7.5625 8.6875 C6.83095703 7.95982422 6.09941406 7.23214844 5.34570312 6.48242188 C4.65541016 5.79083984 3.96511719 5.09925781 3.25390625 4.38671875 C2.62814697 3.75983154 2.0023877 3.13294434 1.35766602 2.48706055 C0 1 0 1 0 0 Z " fill="#99BB6A" transform="translate(410,286)"/>
<path d="M0 0 C2 3 2 3 1.5390625 5.48046875 C1.23742187 6.37378906 0.93578125 7.26710938 0.625 8.1875 C0.32851563 9.08855469 0.03203125 9.98960937 -0.2734375 10.91796875 C-0.51320313 11.60503906 -0.75296875 12.29210937 -1 13 C-0.01 13.33 0.98 13.66 2 14 C2 15.65 2 17.3 2 19 C3.32 19.66 4.64 20.32 6 21 C0.25 21.125 0.25 21.125 -2 20 C-2 19.34 -2 18.68 -2 18 C-2.66 18 -3.32 18 -4 18 C-6.97746781 12.87875536 -6.97746781 12.87875536 -7.0625 9.5625 C-5.47721555 5.73916691 -2.81656042 2.98882711 0 0 Z " fill="#52575E" transform="translate(884,492)"/>
<path d="M0 0 C1.19496094 0.01353516 2.38992188 0.02707031 3.62109375 0.04101562 C6.539548 0.07603708 9.45702348 0.12515007 12.375 0.1875 C12.045 1.1775 11.715 2.1675 11.375 3.1875 C9.40080078 3.27837891 9.40080078 3.27837891 7.38671875 3.37109375 C-5.08900674 3.94693353 -5.08900674 3.94693353 -17.53125 5.00390625 C-19.55565383 5.18141927 -21.59282832 5.1875 -23.625 5.1875 C-23.625 4.5275 -23.625 3.8675 -23.625 3.1875 C-15.67087978 0.16293385 -8.4474553 -0.18364033 0 0 Z " fill="#A2C176" transform="translate(680.625,44.8125)"/>
<path d="M0 0 C1.32 0.33 2.64 0.66 4 1 C4 1.99 4 2.98 4 4 C3.01 4 2.02 4 1 4 C1.33 4.66 1.66 5.32 2 6 C2.42144891 10.5792045 2.46913953 14.72289795 0.875 19.0625 C-1.6000854 21.62008825 -3.51615511 21.76774367 -7 22 C-4.84071065 14.60606981 -2.4695482 7.29582259 0 0 Z " fill="#535960" transform="translate(157,542)"/>
<path d="M0 0 C6.0871663 0.90152647 6.0871663 0.90152647 8.42138672 3.71044922 C9.711759 5.90986599 10.84380919 8.13409206 11.9375 10.4375 C12.33517578 11.21416016 12.73285156 11.99082031 13.14257812 12.79101562 C16 18.50094127 16 18.50094127 16 22 C15.01 22 14.02 22 13 22 C11.38671875 19.875 11.38671875 19.875 9.6875 17 C7.0487845 12.64331228 4.27404682 8.60926919 1.06640625 4.65625 C0 3 0 3 0 0 Z " fill="#7EBB5E" transform="translate(585,223)"/>
<path d="M0 0 C0.99 0.33 1.98 0.66 3 1 C3.61488673 8.25566343 3.61488673 8.25566343 0.625 11.875 C-0.24125 12.57625 -1.1075 13.2775 -2 14 C-2.66 14.66 -3.32 15.32 -4 16 C-6.125 15.625 -6.125 15.625 -8 15 C-7.43120907 13.24521948 -6.84429344 11.49630842 -6.25 9.75 C-5.92515625 8.77546875 -5.6003125 7.8009375 -5.265625 6.796875 C-3.91942103 3.82193041 -2.43095383 2.14495926 0 0 Z " fill="#4D545A" transform="translate(180,486)"/>
<path d="M0 0 C5.44292758 0.38878054 8.23866719 2.06769752 12 6 C13.02760297 8.36348683 13.49938169 10.44684661 14 13 C14.99 13 15.98 13 17 13 C17.33 14.98 17.66 16.96 18 19 C11.489297 13.52509066 5.25012173 7.76776422 -1 2 C-0.67 1.34 -0.34 0.68 0 0 Z " fill="#90BB6A" transform="translate(437,311)"/>
<path d="M0 0 C-0.54182101 4.4396975 -2.18105969 7.10893646 -4.8125 10.6875 C-5.49957031 11.64011719 -6.18664062 12.59273437 -6.89453125 13.57421875 C-8.93412335 15.9241013 -10.21683438 16.78770086 -13 18 C-14.70496537 19.62746694 -16.37897032 21.28891311 -18 23 C-18.33 22.34 -18.66 21.68 -19 21 C-16.01822087 16.29796368 -12.67238891 12.1759316 -9 8 C-8.38253906 7.26652344 -7.76507813 6.53304687 -7.12890625 5.77734375 C-6.50886719 5.04644531 -5.88882812 4.31554687 -5.25 3.5625 C-4.39148438 2.54349609 -4.39148438 2.54349609 -3.515625 1.50390625 C-2 0 -2 0 0 0 Z " fill="#9DBE72" transform="translate(319,63)"/>
<path d="M0 0 C0.33 0.66 0.66 1.32 1 2 C-1.56017405 7.5245861 -4.71777866 12.77197585 -10 16 C-10.66 16 -11.32 16 -12 16 C-12.33 16.99 -12.66 17.98 -13 19 C-14.65 19 -16.3 19 -18 19 C-12.81661725 11.69010124 -7.16488876 5.42794603 0 0 Z " fill="#E6F4D3" transform="translate(629,297)"/>
<path d="M0 0 C1.65 0.33 3.3 0.66 5 1 C3.2868225 4.14082541 1.37237536 6.78185594 -1 9.4375 C-3.63234202 12.41995648 -5.24982665 15.42009998 -7 19 C-9.1875 21.375 -9.1875 21.375 -11 23 C-11 21.02 -11 19.04 -11 17 C-10.01 16.67 -9.02 16.34 -8 16 C-8.103125 15.13375 -8.20625 14.2675 -8.3125 13.375 C-7.89692863 8.88682918 -6.03264276 7.24422249 -3 4 C-1.9888778 2.67508126 -0.98336098 1.34565187 0 0 Z " fill="#E8F6DC" transform="translate(306,69)"/>
<path d="M0 0 C0.78375 0.04125 1.5675 0.0825 2.375 0.125 C-2.84802579 11.39372598 -2.84802579 11.39372598 -7.3125 13.3125 C-10.625 14.125 -10.625 14.125 -13.625 14.125 C-12.19942379 10.94596506 -10.4476848 8.58841568 -8.125 6 C-7.5165625 5.31679687 -6.908125 4.63359375 -6.28125 3.9296875 C-2.79701983 0.13319142 -2.79701983 0.13319142 0 0 Z " fill="#E9F6D8" transform="translate(685.625,241.875)"/>
<path d="M0 0 C0.76183594 0.00386719 1.52367187 0.00773437 2.30859375 0.01171875 C4.82520874 0.34755819 6.42208414 0.9537222 8.5625 2.3125 C10.85263653 5.7477048 10.74092973 7.297831 10.5625 11.3125 C8.9125 10.6525 7.2625 9.9925 5.5625 9.3125 C5.5625 7.6625 5.5625 6.0125 5.5625 4.3125 C4.2425 5.3025 2.9225 6.2925 1.5625 7.3125 C0.7271875 6.879375 0.7271875 6.879375 -0.125 6.4375 C-2.52244645 5.2711747 -4.95346939 4.2785119 -7.4375 3.3125 C-5.08278413 0.46126257 -3.67419868 -0.08054736 0 0 Z " fill="#474E55" transform="translate(535.4375,454.6875)"/>
<path d="M0 0 C0.66 0 1.32 0 2 0 C1.45276317 3.37462715 0.9451 5.08235 -1 8 C-1.99 8 -2.98 8 -4 8 C-4.2475 8.825 -4.495 9.65 -4.75 10.5 C-6.1654276 14.46319728 -7.64506636 18.4885509 -10 22 C-10.99 22.33 -11.98 22.66 -13 23 C-12.74022567 17.03817909 -12.23607109 13.49280267 -8 9 C-7.5359375 7.88625 -7.5359375 7.88625 -7.0625 6.75 C-6 5 -6 5 -3.375 4.25 C-2.199375 4.12625 -2.199375 4.12625 -1 4 C-0.67 2.68 -0.34 1.36 0 0 Z " fill="#7FBC5E" transform="translate(462,225)"/>
<path d="M0 0 C3.63 0.33 7.26 0.66 11 1 C11 3.31 11 5.62 11 8 C12.32 8 13.64 8 15 8 C15.99 9.98 16.98 11.96 18 14 C16.21582031 14.68310547 16.21582031 14.68310547 14 15 C12.26074219 13.84423828 12.26074219 13.84423828 10.546875 12.0703125 C9.928125 11.43996094 9.309375 10.80960938 8.671875 10.16015625 C8.03765625 9.48855469 7.4034375 8.81695312 6.75 8.125 C6.1003125 7.46113281 5.450625 6.79726562 4.78125 6.11328125 C0 1.18136161 0 1.18136161 0 0 Z " fill="#99BB69" transform="translate(352,228)"/>
<path d="M0 0 C0 0.66 0 1.32 0 2 C-0.66 2 -1.32 2 -2 2 C-2.0825 2.61875 -2.165 3.2375 -2.25 3.875 C-3 6 -3 6 -4.8125 6.875 C-7.45329582 8.23312356 -8.84843119 9.85774488 -10.75 12.125 C-11.36359375 12.84945312 -11.9771875 13.57390625 -12.609375 14.3203125 C-13.06828125 14.87460938 -13.5271875 15.42890625 -14 16 C-14.99 15.67 -15.98 15.34 -17 15 C-15.25 10.125 -15.25 10.125 -13 9 C-12.566875 8.236875 -12.13375 7.47375 -11.6875 6.6875 C-8.69381532 1.91977995 -5.77421749 -0.65991057 0 0 Z " fill="#E3F1D0" transform="translate(595,96)"/>
<path d="M0 0 C1.32 0.33 2.64 0.66 4 1 C3.48050781 1.50789062 2.96101562 2.01578125 2.42578125 2.5390625 C-2.36835345 7.26939789 -2.36835345 7.26939789 -6.75 12.375 C-8.87476433 14.85389172 -10.09696889 15.74201985 -13 17 C-14.70921589 18.5412312 -14.70921589 18.5412312 -16 20 C-16 18.68 -16 17.36 -16 16 C-15.34 16 -14.68 16 -14 16 C-13.95875 15.278125 -13.9175 14.55625 -13.875 13.8125 C-12.63721895 9.83391804 -10.32298855 8.39255176 -7 6 C-6.01 5.67 -5.02 5.34 -4 5 C-3.67 4.01 -3.34 3.02 -3 2 C-2.01 2 -1.02 2 0 2 C0 1.34 0 0.68 0 0 Z " fill="#E7F4D7" transform="translate(555,132)"/>
<path d="M0 0 C5.50719921 3.90510489 10.35827355 8.09717644 15 13 C12.45007037 13.95042831 11.34944895 14.14027176 8.78125 13.109375 C8.0284375 12.66078125 7.275625 12.2121875 6.5 11.75 C5.7471875 11.31171875 4.994375 10.8734375 4.21875 10.421875 C2.06242406 9.04000415 0.02591657 7.56548099 -2 6 C-1.125 1.125 -1.125 1.125 0 0 Z " fill="#9DBF6D" transform="translate(452,92)"/>
<path d="M0 0 C3.5532631 2.71965299 4.42132182 6.59059113 5.6875 10.6875 C5.91244141 11.38939453 6.13738281 12.09128906 6.36914062 12.81445312 C6.92096357 14.54036743 7.46159058 16.26985433 8 18 C5.23723823 17.47731534 2.6739124 16.89130413 0 16 C-0.19389096 13.5211787 -0.38040123 11.04219069 -0.5625 8.5625 C-0.61857422 7.85544922 -0.67464844 7.14839844 -0.73242188 6.41992188 C-0.86190993 4.61572163 -0.93521608 2.80768048 -1 1 C-0.67 0.67 -0.34 0.34 0 0 Z " fill="#4C5259" transform="translate(111,537)"/>
<path d="M0 0 C0.99 1.0209375 0.99 1.0209375 2 2.0625 C4.93839188 5.04323183 8.16052639 7.64049525 11.42578125 10.25390625 C13 12 13 12 13 16 C15.31 16 17.62 16 20 16 C20 16.66 20 17.32 20 18 C16.55252886 18.48197655 13.42684655 18.69484446 10 18 C8.15058577 16.14617189 7.18147637 14.36415437 6.0234375 12.0234375 C5.0419479 9.79920824 5.0419479 9.79920824 2.75 7.875 C0.43371983 5.39327124 0.3015211 3.31673212 0 0 Z " fill="#99BE72" transform="translate(509,148)"/>
<path d="M0 0 C0.3125 2.75 0.3125 2.75 0 6 C-2.29650569 8.36029752 -3.92749302 9.7854986 -7.1875 10.4375 C-8.0846875 10.7159375 -8.0846875 10.7159375 -9 11 C-10.29660434 13.49034386 -10.29660434 13.49034386 -11 16 C-12.65 16 -14.3 16 -16 16 C-5.14893617 0 -5.14893617 0 0 0 Z " fill="#E5F2CF" transform="translate(648,279)"/>
<path d="M0 0 C0.66 0 1.32 0 2 0 C2.5 2.6875 2.5 2.6875 2 6 C0.12935229 7.4337081 -1.84309613 8.45865676 -3.91796875 9.57421875 C-6.31216962 11.21377469 -7.16348247 12.63847172 -8.5 15.1875 C-9.85337937 17.65706855 -10.49857357 18.76951318 -13.08203125 19.95703125 C-15.3125 20.5 -15.3125 20.5 -19 21 C-18.01 19.515 -18.01 19.515 -17 18 C-16.01 18 -15.02 18 -14 18 C-13.67 16.68 -13.34 15.36 -13 14 C-12.34 14 -11.68 14 -11 14 C-10.91621094 13.41347656 -10.83242188 12.82695313 -10.74609375 12.22265625 C-9.78374862 9.3557747 -8.39844339 8.32568571 -6.0625 6.4375 C-3.46971343 4.32468481 -1.88302476 2.82453714 0 0 Z " fill="#9CBD71" transform="translate(606,84)"/>
<path d="M0 0 C2.31 0.33 4.62 0.66 7 1 C7 1.99 7 2.98 7 4 C8.32 4.33 9.64 4.66 11 5 C11 5.99 11 6.98 11 8 C12.32 8.33 13.64 8.66 15 9 C15 9.99 15 10.98 15 12 C16.32 12.66 17.64 13.32 19 14 C18.01 14.99 17.02 15.98 16 17 C13.32932797 14.3581833 10.66414667 11.7108958 8 9.0625 C7.236875 8.30775391 6.47375 7.55300781 5.6875 6.77539062 C4.965625 6.05673828 4.24375 5.33808594 3.5 4.59765625 C2.8296875 3.93258057 2.159375 3.26750488 1.46875 2.58227539 C0 1 0 1 0 0 Z " fill="#9ABB6F" transform="translate(368,244)"/>
<path d="M0 0 C0.33 0.66 0.66 1.32 1 2 C-5.08356979 5.09212176 -10.18012971 6.56699236 -17 7 C-17.66 6.01 -18.32 5.02 -19 4 C-16.39898714 3.13499112 -13.79493589 2.28273072 -11.1875 1.4375 C-10.44951172 1.19064453 -9.71152344 0.94378906 -8.95117188 0.68945312 C-3.33984375 -1.11328125 -3.33984375 -1.11328125 0 0 Z " fill="#9ABE67" transform="translate(358,46)"/>
<path d="M0 0 C4.23035473 -0.50361366 5.70584886 -0.20929985 9.25 2.3125 C12 5 12 5 14 8 C13.625 10.6875 13.625 10.6875 13 13 C8.11950075 9.0580583 3.9419417 4.88049925 0 0 Z " fill="#9ABB6B" transform="translate(333,209)"/>
<path d="M0 0 C0.88316895 0.30321167 0.88316895 0.30321167 1.78417969 0.61254883 C1.14480469 1.00442383 0.50542969 1.39629883 -0.15332031 1.80004883 C-2.65360851 3.99727179 -2.86532456 5.37046315 -3.21582031 8.61254883 C-5.85582031 8.61254883 -8.49582031 8.61254883 -11.21582031 8.61254883 C-11.21582031 9.27254883 -11.21582031 9.93254883 -11.21582031 10.61254883 C-12.86582031 10.61254883 -14.51582031 10.61254883 -16.21582031 10.61254883 C-16.21582031 9.95254883 -16.21582031 9.29254883 -16.21582031 8.61254883 C-13.99659941 6.9421994 -11.79759026 5.42173053 -9.46582031 3.92504883 C-8.83160156 3.49643555 -8.19738281 3.06782227 -7.54394531 2.6262207 C-2.74270634 -0.47958076 -2.74270634 -0.47958076 0 0 Z " fill="#A0BF74" transform="translate(644.2158203125,53.387451171875)"/>
<path d="M0 0 C0.99 0.33 1.98 0.66 3 1 C-0.39103139 10.23587444 -0.39103139 10.23587444 -4.3359375 12.109375 C-6.57698191 12.57596469 -8.71492997 12.89047595 -11 13 C-8.36517737 7.73035473 -4.20056089 4.02096446 0 0 Z " fill="#D4F1DB" transform="translate(590,335)"/>
<path d="M0 0 C2.64 0 5.28 0 8 0 C8.33 0.99 8.66 1.98 9 3 C6.0706646 7.13553232 3.48876281 9.58297387 -1 12 C-2.34631825 12.98244845 -3.68441297 13.97676564 -5 15 C-4.6875 13.125 -4.6875 13.125 -4 11 C-3.01 10.34 -2.02 9.68 -1 9 C-0.42006301 6.80545319 -0.42006301 6.80545319 -0.3125 4.375 C-0.24675781 3.55773437 -0.18101562 2.74046875 -0.11328125 1.8984375 C-0.07589844 1.27195313 -0.03851562 0.64546875 0 0 Z " fill="#93B764" transform="translate(666,249)"/>
<path d="M0 0 C3.43373232 2.83282916 4.9070996 4.10196279 5.375 8.625 C5 12 5 12 4 15 C3.01 15.33 2.02 15.66 1 16 C0.814375 15.071875 0.814375 15.071875 0.625 14.125 C0.12802644 11.80879168 0.12802644 11.80879168 -2 10 C-1.67 9.278125 -1.34 8.55625 -1 7.8125 C0.00603529 4.98302573 0.16977402 2.97104534 0 0 Z " fill="#53595F" transform="translate(596,601)"/>
<path d="M0 0 C1.37562854 1.28965176 2.70766393 2.62689293 4 4 C4 4.66 4 5.32 4 6 C5.32 6 6.64 6 8 6 C8.33 7.65 8.66 9.3 9 11 C5.535 12.485 5.535 12.485 2 14 C0.4087311 9.126739 -0.21192221 5.19209404 0 0 Z " fill="#50575E" transform="translate(217,573)"/>
<path d="M0 0 C-0.33 0.99 -0.66 1.98 -1 3 C-1.825 3.309375 -2.65 3.61875 -3.5 3.9375 C-4.325 4.288125 -5.15 4.63875 -6 5 C-6.35412344 6.32796291 -6.68521554 7.66216607 -7 9 C-11.33333333 13 -11.33333333 13 -14 13 C-13.50369686 7.20979674 -10.0913307 4.83783607 -5.9375 1.1875 C-4 0 -4 0 0 0 Z " fill="#EBF7DB" transform="translate(634,57)"/>
<path d="M0 0 C4.75 0.875 4.75 0.875 7 2 C6.4375 5.375 6.4375 5.375 5 9 C1.375 10.4375 1.375 10.4375 -2 11 C-1.125 3.375 -1.125 3.375 0 0 Z " fill="#4A5259" transform="translate(219,521)"/>
<path d="M0 0 C2.5 1.375 2.5 1.375 5 3 C5 3.66 5 4.32 5 5 C5.61875 5.268125 6.2375 5.53625 6.875 5.8125 C9 7 9 7 11 10 C8.35261084 11.4606285 7.10551666 12 4 12 C3.896875 11.360625 3.79375 10.72125 3.6875 10.0625 C3.460625 9.381875 3.23375 8.70125 3 8 C2.01 7.67 1.02 7.34 0 7 C0 4.69 0 2.38 0 0 Z " fill="#9CBF69" transform="translate(498,138)"/>
<path d="M0 0 C6.75 0.875 6.75 0.875 9 2 C9 2.99 9 3.98 9 5 C9.66 5 10.32 5 11 5 C11 5.99 11 6.98 11 8 C11.66 8 12.32 8 13 8 C13 9.65 13 11.3 13 13 C8.11950075 9.0580583 3.9419417 4.88049925 0 0 Z " fill="#9BBC6E" transform="translate(396,272)"/>
<path d="M0 0 C-0.33 1.65 -0.66 3.3 -1 5 C-2.32 5 -3.64 5 -5 5 C-5.2475 5.7425 -5.495 6.485 -5.75 7.25 C-7.10465039 10.23023087 -8.5101541 11.89919252 -11 14 C-11.66 14 -12.32 14 -13 14 C-12.6875 11.125 -12.6875 11.125 -12 8 C-9 6 -9 6 -6 6 C-6 4.68 -6 3.36 -6 2 C-3 0 -3 0 0 0 Z " fill="#ECF7DC" transform="translate(611,78)"/>
<path d="M0 0 C2.57216446 0.3547813 3.79677287 0.8042998 5.6875 2.625 C7.38925154 5.70435993 7.66588785 8.52523365 8 12 C7.01 12.495 7.01 12.495 6 13 C4.79723305 11.59627198 3.61319481 10.17647903 2.4375 8.75 C1.44556641 7.56664062 1.44556641 7.56664062 0.43359375 6.359375 C-1 4 -1 4 -0.71484375 1.703125 C-0.47894531 1.14109375 -0.24304688 0.5790625 0 0 Z " fill="#464E56" transform="translate(875,601)"/>
<path d="M0 0 C3.59634744 3.49359465 6.83451967 7.11098131 10 11 C7.36 10.67 4.72 10.34 2 10 C1.67 8.68 1.34 7.36 1 6 C0.01 6 -0.98 6 -2 6 C-1.125 1.125 -1.125 1.125 0 0 Z " fill="#99BC65" transform="translate(488,127)"/>
<path d="M0 0 C0.33 0.99 0.66 1.98 1 3 C-0.45365269 4.17249353 -1.91307419 5.33783816 -3.375 6.5 C-4.18710937 7.1496875 -4.99921875 7.799375 -5.8359375 8.46875 C-8 10 -8 10 -10 10 C-10 8.35 -10 6.7 -10 5 C-9.01 5 -8.02 5 -7 5 C-7 4.01 -7 3.02 -7 2 C-2.25 0 -2.25 0 0 0 Z " fill="#E1EFCC" transform="translate(569,121)"/>
<path d="M0 0 C0.66 0.33 1.32 0.66 2 1 C3.4465242 1.15067214 4.8987934 1.24861036 6.3515625 1.31640625 C7.62773438 1.37924805 7.62773438 1.37924805 8.9296875 1.44335938 C9.81914063 1.48267578 10.70859375 1.52199219 11.625 1.5625 C12.97078125 1.62727539 12.97078125 1.62727539 14.34375 1.69335938 C16.56234283 1.79956861 18.7810488 1.90161194 21 2 C21 2.33 21 2.66 21 3 C16.05 3 11.1 3 6 3 C5.34 4.32 4.68 5.64 4 7 C2.35 7 0.7 7 -1 7 C-0.67 4.69 -0.34 2.38 0 0 Z " fill="#5D646B" transform="translate(553,600)"/>
<path d="M0 0 C0.66 0.33 1.32 0.66 2 1 C0.92598892 3.91517292 0.22189824 5.77810176 -2 8 C-4.72869407 7.96712417 -7.2966618 7.43602229 -10 7 C-7.01767477 3.67356033 -4.13629913 1.70847138 0 0 Z " fill="#4A5157" transform="translate(895,542)"/>
<path d="M0 0 C1.68359375 1.1796875 1.68359375 1.1796875 3.4375 2.875 C5.91372385 5.25704979 7.58595163 6.41473456 11 7 C11.33 8.65 11.66 10.3 12 12 C6.5619187 9.42406675 1.72622707 6.74159643 -3 3 C-3 2.34 -3 1.68 -3 1 C-2.01 0.67 -1.02 0.34 0 0 Z " fill="#DBECC6" transform="translate(417,56)"/>
<path d="M0 0 C6.54360136 1.33295583 6.54360136 1.33295583 8.625 4.375 C9 7 9 7 7.5234375 9.1640625 C6.76933594 10.07285156 6.76933594 10.07285156 6 11 C4.9944239 9.54550599 3.99569565 8.08627557 3 6.625 C2.443125 5.81289063 1.88625 5.00078125 1.3125 4.1640625 C0 2 0 2 0 0 Z " fill="#4D545B" transform="translate(117,609)"/>
<path d="M0 0 C0.33 1.32 0.66 2.64 1 4 C0.01 4 -0.98 4 -2 4 C-2.185625 4.78375 -2.37125 5.5675 -2.5625 6.375 C-4 9 -4 9 -7.625 10.3125 C-8.73875 10.539375 -9.8525 10.76625 -11 11 C-10.06558465 9.72689688 -9.12732889 8.456612 -8.1875 7.1875 C-7.66542969 6.47980469 -7.14335938 5.77210938 -6.60546875 5.04296875 C-2.64244742 0 -2.64244742 0 0 0 Z " fill="#E4F2D1" transform="translate(669,258)"/>
<path d="M0 0 C1.11375 0.3403125 1.11375 0.3403125 2.25 0.6875 C-0.37590443 4.38321734 -2.29572215 6.51532162 -6.75 7.6875 C-7.41 7.3575 -8.07 7.0275 -8.75 6.6875 C-6.97710463 2.40300285 -4.94524284 -0.56195941 0 0 Z " fill="#51A568" transform="translate(577.75,345.3125)"/>
<path d="M0 0 C1.32 0.66 2.64 1.32 4 2 C0.54563567 5.59253891 -3.19364503 8.79239749 -7 12 C-7.33 11.34 -7.66 10.68 -8 10 C-5.61820737 6.25718301 -3.25524265 3.02272532 0 0 Z " fill="#95BB64" transform="translate(308,74)"/>
<path d="M0 0 C0 0.99 0 1.98 0 3 C-3.96 4.98 -7.92 6.96 -12 9 C-12 7.68 -12 6.36 -12 5 C-11.01 5 -10.02 5 -9 5 C-9 4.01 -9 3.02 -9 2 C-6.03 1.34 -3.06 0.68 0 0 Z " fill="#EAF7D9" transform="translate(330,54)"/>
<path d="M0 0 C0.66 0.66 1.32 1.32 2 2 C1.8125 5 1.8125 5 1 8 C-2 10 -2 10 -4.6875 9.625 C-5.450625 9.41875 -6.21375 9.2125 -7 9 C-5.75 6.5 -5.75 6.5 -4 4 C-2.68 4 -1.36 4 0 4 C0 2.68 0 1.36 0 0 Z " fill="#A1C171" transform="translate(536,153)"/>
<path d="M0 0 C-0.17298401 2.33528415 -0.70225369 3.69177582 -2.33203125 5.37890625 C-6.57211538 9 -6.57211538 9 -9 9 C-8.6507442 5.85669777 -8.16074267 4.20508548 -6.1875 1.6875 C-4 0 -4 0 0 0 Z " fill="#464E52" transform="translate(322,609)"/>
<path d="M0 0 C0.99 0.33 1.98 0.66 3 1 C2.01 3.97 1.02 6.94 0 10 C-1.65 9.67 -3.3 9.34 -5 9 C-3.7508258 5.54074837 -2.32472205 2.85306797 0 0 Z " fill="#98BD65" transform="translate(297,89)"/>
<path d="M0 0 C3.71198163 -0.34530062 5.57283878 -0.25629673 8.8125 1.6875 C11.25267511 4.26711368 11.47354367 5.58652509 12 9 C10.18381144 7.88096454 8.37214474 6.75458716 6.5625 5.625 C5.55316406 4.99851562 4.54382813 4.37203125 3.50390625 3.7265625 C1 2 1 2 0 0 Z " fill="#5DAD77" transform="translate(472,347)"/>
<path d="M0 0 C4.47238653 1.41807378 8.71146306 3.11304374 13 5 C13 5.66 13 6.32 13 7 C7.02102497 7.74737188 3.67620279 5.3231898 -1 2 C-0.67 1.34 -0.34 0.68 0 0 Z " fill="#99BA6D" transform="translate(705,48)"/>
<path d="M0 0 C0.33 0.99 0.66 1.98 1 3 C-1.64 4.98 -4.28 6.96 -7 9 C-8.32 8.34 -9.64 7.68 -11 7 C-7.54319097 4.23455278 -3.85658398 2.15078722 0 0 Z " fill="#9BBE6E" transform="translate(330,56)"/>
<path d="M0 0 C2.04119788 1.61594832 4.04072937 3.2856382 6 5 C6 5.66 6 6.32 6 7 C1.545 7.495 1.545 7.495 -3 8 C-2.45276317 4.62537285 -1.9451 2.91765 0 0 Z " fill="#EEF6E0" transform="translate(445,321)"/>
<path d="M0 0 C6.52307692 0.61538462 6.52307692 0.61538462 8.9375 2.5625 C9.288125 3.036875 9.63875 3.51125 10 4 C9.34 4 8.68 4 8 4 C8 4.66 8 5.32 8 6 C7.01 6.33 6.02 6.66 5 7 C4.34 7.66 3.68 8.32 3 9 C3 6.36 3 3.72 3 1 C2.01 0.67 1.02 0.34 0 0 Z " fill="#555C62" transform="translate(311,597)"/>
<path d="M0 0 C6.75 0.875 6.75 0.875 9 2 C9 3.65 9 5.3 9 7 C6 7 6 7 4.39453125 5.46875 C3.87246094 4.8190625 3.35039062 4.169375 2.8125 3.5 C2.28269531 2.8503125 1.75289063 2.200625 1.20703125 1.53125 C0.80871094 1.0259375 0.41039062 0.520625 0 0 Z " fill="#9ABD6A" transform="translate(388,264)"/>
<path d="M0 0 C-0.75 6.75 -0.75 6.75 -3 9 C-5.625 9.125 -5.625 9.125 -8 9 C-2.2 0 -2.2 0 0 0 Z " fill="#DFEFC5" transform="translate(736,190)"/>
<path d="M0 0 C2.64 0.99 5.28 1.98 8 3 C8 4.32 8 5.64 8 7 C7.01 7.33 6.02 7.66 5 8 C3.02 5.69 1.04 3.38 -1 1 C-0.67 0.67 -0.34 0.34 0 0 Z " fill="#99BB6C" transform="translate(316,190)"/>
<path d="M0 0 C0.33 0 0.66 0 1 0 C1 2.31 1 4.62 1 7 C-1.97 7.66 -4.94 8.32 -8 9 C-2.25 2.25 -2.25 2.25 0 0 Z " fill="#9CC06D" transform="translate(558,133)"/>
<path d="M0 0 C3.465 1.485 3.465 1.485 7 3 C6.67 4.65 6.34 6.3 6 8 C2.535 6.02 2.535 6.02 -1 4 C-0.67 2.68 -0.34 1.36 0 0 Z " fill="#4F555B" transform="translate(646,609)"/>
<path d="M0 0 C2.76223278 2.76223278 2.57856291 5.20706617 3 9 C-1 9 -1 9 -2.75 7.5 C-3.1625 7.005 -3.575 6.51 -4 6 C-3.34 5.67 -2.68 5.34 -2 5 C-1.27840576 3.35636866 -0.60648579 1.68949614 0 0 Z " fill="#52575D" transform="translate(326,517)"/>
<path d="M0 0 C-1.67401978 3.95677402 -4.13149285 6.84464213 -7 10 C-7.66 10 -8.32 10 -9 10 C-8.69121904 6.39755548 -8.00552268 5.00654002 -5.625 2.1875 C-3 0 -3 0 0 0 Z " fill="#93B663" transform="translate(693,231)"/>
<path d="M0 0 C0.66 0.33 1.32 0.66 2 1 C1.875 2.75 1.875 2.75 1 5 C-2.0625 7.25 -2.0625 7.25 -5 9 C-6.125 5.25 -6.125 5.25 -5 3 C-3.66666667 2.66666667 -2.33333333 2.33333333 -1 2 C-0.67 1.34 -0.34 0.68 0 0 Z " fill="#99BB6D" transform="translate(630,292)"/>
<path d="M0 0 C2 1.125 2 1.125 4 3 C4.25 6.1875 4.25 6.1875 4 9 C1 8 1 8 -0.6875 4.9375 C-1.120625 3.968125 -1.55375 2.99875 -2 2 C-1.34 1.34 -0.68 0.68 0 0 Z " fill="#484E54" transform="translate(635,595)"/>
<path d="M0 0 C2.97 0.99 5.94 1.98 9 3 C8.67 4.65 8.34 6.3 8 8 C6.85073734 7.04578192 5.70569459 6.08647955 4.5625 5.125 C3.92441406 4.59132812 3.28632813 4.05765625 2.62890625 3.5078125 C1 2 1 2 0 0 Z " fill="#9ABD6D" transform="translate(325,201)"/>
<path d="M0 0 C0.99 0 1.98 0 3 0 C4.6875 2 4.6875 2 6 4 C5.34 4.66 4.68 5.32 4 6 C0.875 5.625 0.875 5.625 -2 5 C-1.125 1.125 -1.125 1.125 0 0 Z " fill="#E3F0CD" transform="translate(524,159)"/>
<path d="M0 0 C0.66 0 1.32 0 2 0 C2.33 0.99 2.66 1.98 3 3 C-0.3340947 5.19097652 -3.04179141 6.43454163 -7 7 C-7.33 6.34 -7.66 5.68 -8 5 C-7.67 4.34 -7.34 3.68 -7 3 C-5 2.66666667 -3 2.33333333 -1 2 C-0.67 1.34 -0.34 0.68 0 0 Z " fill="#57A76B" transform="translate(565,353)"/>
<path d="M0 0 C3.47917182 2.31944788 4.29429766 4.26369964 6 8 C4.34385343 8.38218767 2.67542976 8.71395102 1 9 C0 8 0 8 -0.09765625 6.15234375 C-0.06510417 4.1015625 -0.03255208 2.05078125 0 0 Z " fill="#99BD66" transform="translate(434,73)"/>
<path d="M0 0 C3.7952131 1.49097658 5.61042731 3.75700849 8 7 C6.35 7.33 4.7 7.66 3 8 C0 3.375 0 3.375 0 0 Z " fill="#51555D" transform="translate(311,497)"/>
<path d="M0 0 C3.57104439 1.87949705 5.54744301 3.17053157 7 7 C4.03 6.505 4.03 6.505 1 6 C0.67 4.02 0.34 2.04 0 0 Z " fill="#E0EFC9" transform="translate(305,181)"/>
<path d="M0 0 C0.66 0.33 1.32 0.66 2 1 C1.34 2.32 0.68 3.64 0 5 C-0.99 5 -1.98 5 -3 5 C-3 5.99 -3 6.98 -3 8 C-4.32 8.33 -5.64 8.66 -7 9 C-5.44499019 5.18315774 -2.96404505 2.80804268 0 0 Z " fill="#E7F5D2" transform="translate(713,214)"/>
<path d="M0 0 C-0.33 1.65 -0.66 3.3 -1 5 C-2.32 5 -3.64 5 -5 5 C-5.33 5.66 -5.66 6.32 -6 7 C-6.1875 4.625 -6.1875 4.625 -6 2 C-3 0 -3 0 0 0 Z " fill="#E6F3D4" transform="translate(611,78)"/>
<path d="M0 0 C0.66 0 1.32 0 2 0 C2.33 0.99 2.66 1.98 3 3 C2 5 2 5 0.15234375 5.6328125 C-0.94400391 5.87644531 -0.94400391 5.87644531 -2.0625 6.125 C-2.79597656 6.29257813 -3.52945313 6.46015625 -4.28515625 6.6328125 C-4.85105469 6.75398438 -5.41695312 6.87515625 -6 7 C-5.34 6.01 -4.68 5.02 -4 4 C-3.01 4 -2.02 4 -1 4 C-0.67 2.68 -0.34 1.36 0 0 Z " fill="#97BA66" transform="translate(593,98)"/>
<path d="M0 0 C-1.29299694 2.88437779 -2.65941363 4.87219421 -5 7 C-5 5.02 -5 3.04 -5 1 C-3 0 -3 0 0 0 Z " fill="#94B865" transform="translate(661,264)"/>
</svg>
